<svg xmlns="http://www.w3.org/2000/svg" width="876" height="440" fill="none"><g fill="#191919" fill-rule="evenodd" clip-rule="evenodd" opacity=".05"><path d="M729.329 147.805 582.672 98.81V-.234H876V98.81zm144.672-50.44V1.77h-289.33v95.597l144.658 48.326z"/><path d="M583.671 293.786 437 244.791v-99.044h293.329v99.044zm0-2.113 144.658-48.326v-95.596H439v95.596z"/><path d="M437 147.75V-.234h147.671V147.75zm2-2.003h143.672V1.769H439z"/><path d="M582.658 147.75V-.234h147.671V147.75zm2-2.003h143.671V1.769H584.658z"/><path d="M438 147.805 291.329 98.81V-.234h293.342V98.81zm144.671-50.44V1.77H293.328v95.597L438 145.692zM438 439.766l-146.671-48.994v-99.045h293.342v99.045zm144.671-50.438v-95.597H293.328v95.597L438 437.654z"/><path d="M291.329 293.731V145.746H439v147.985zm1.999-2.004H437V147.75H293.328z"/><path d="M436.987 293.731V145.747h147.671v147.984zm1.999-2.004h143.672V147.75H438.986z"/><path d="m292.329 293.786-146.671-48.995v-99.044H439v99.044zM437 243.347v-95.596H147.657v95.596l144.672 48.326z"/><path d="M145.658 147.75V-.234h147.671V147.75zm1.999-2.003h143.672V1.769H147.657z"/><path d="M291.329 147.75V-.235H439V147.75zm1.999-2.003H437V1.769H293.328z"/><path d="M146.657 147.805 0 98.81V-.234H293.33l-.001 99.044zm144.672-50.44V1.77H1.999v95.597l144.659 48.326z"/></g></svg>